<mxfile host="app.diagrams.net" agent="Mozilla/5.0 (Windows NT 10.0; Win64; x64) AppleWebKit/537.36 (KHTML, like Gecko) Chrome/137.0.0.0 Safari/537.36" version="27.1.6">
  <diagram name="PÃ¡gina-1" id="Lag96efnhmsNSRjMmsMt">
    <mxGraphModel grid="1" page="1" gridSize="10" guides="1" tooltips="1" connect="1" arrows="1" fold="1" pageScale="1" pageWidth="827" pageHeight="1169" math="0" shadow="0">
      <root>
        <mxCell id="0" />
        <mxCell id="1" parent="0" />
        <mxCell id="ySTbdtxIzFItPcby8uXL-2" value="Administrador" style="html=1;whiteSpace=wrap;" vertex="1" parent="1">
          <mxGeometry x="159" y="327" width="110" height="50" as="geometry" />
        </mxCell>
        <mxCell id="ySTbdtxIzFItPcby8uXL-3" value="Sistema&lt;span style=&quot;color: rgba(0, 0, 0, 0); font-family: monospace; font-size: 0px; text-align: start; text-wrap-mode: nowrap;&quot;&gt;%3CmxGraphModel%3E%3Croot%3E%3CmxCell%20id%3D%220%22%2F%3E%3CmxCell%20id%3D%221%22%20parent%3D%220%22%2F%3E%3CmxCell%20id%3D%222%22%20value%3D%22Usuario%22%20style%3D%22html%3D1%3BwhiteSpace%3Dwrap%3B%22%20vertex%3D%221%22%20parent%3D%221%22%3E%3CmxGeometry%20x%3D%2270%22%20y%3D%2240%22%20width%3D%22110%22%20height%3D%2250%22%20as%3D%22geometry%22%2F%3E%3C%2FmxCell%3E%3C%2Froot%3E%3C%2FmxGraphModel%3E&lt;/span&gt;" style="html=1;whiteSpace=wrap;" vertex="1" parent="1">
          <mxGeometry x="350.25" y="327" width="110" height="50" as="geometry" />
        </mxCell>
        <mxCell id="ySTbdtxIzFItPcby8uXL-4" value="Base de datos" style="html=1;whiteSpace=wrap;" vertex="1" parent="1">
          <mxGeometry x="559" y="327" width="110" height="50" as="geometry" />
        </mxCell>
        <mxCell id="fawG-mlUvmoSq1yjeNEX-1" style="edgeStyle=orthogonalEdgeStyle;rounded=0;orthogonalLoop=1;jettySize=auto;html=1;exitX=0.5;exitY=0;exitDx=0;exitDy=0;dashed=1;endArrow=none;startFill=0;" edge="1" parent="1" source="ySTbdtxIzFItPcby8uXL-6" target="ySTbdtxIzFItPcby8uXL-2">
          <mxGeometry relative="1" as="geometry" />
        </mxCell>
        <mxCell id="ySTbdtxIzFItPcby8uXL-6" value="Administrador" style="html=1;whiteSpace=wrap;" vertex="1" parent="1">
          <mxGeometry x="159" y="850" width="110" height="50" as="geometry" />
        </mxCell>
        <mxCell id="zP6GRgx2e1SfnY5_b2-m-10" style="edgeStyle=orthogonalEdgeStyle;rounded=0;orthogonalLoop=1;jettySize=auto;html=1;exitX=0.5;exitY=0;exitDx=0;exitDy=0;dashed=1;endArrow=none;startFill=0;" edge="1" parent="1" source="ySTbdtxIzFItPcby8uXL-7" target="ySTbdtxIzFItPcby8uXL-3">
          <mxGeometry relative="1" as="geometry" />
        </mxCell>
        <mxCell id="ySTbdtxIzFItPcby8uXL-7" value="Sistema&lt;span style=&quot;color: rgba(0, 0, 0, 0); font-family: monospace; font-size: 0px; text-align: start; text-wrap-mode: nowrap;&quot;&gt;%3CmxGraphModel%3E%3Croot%3E%3CmxCell%20id%3D%220%22%2F%3E%3CmxCell%20id%3D%221%22%20parent%3D%220%22%2F%3E%3CmxCell%20id%3D%222%22%20value%3D%22Usuario%22%20style%3D%22html%3D1%3BwhiteSpace%3Dwrap%3B%22%20vertex%3D%221%22%20parent%3D%221%22%3E%3CmxGeometry%20x%3D%2270%22%20y%3D%2240%22%20width%3D%22110%22%20height%3D%2250%22%20as%3D%22geometry%22%2F%3E%3C%2FmxCell%3E%3C%2Froot%3E%3C%2FmxGraphModel%3E&lt;/span&gt;" style="html=1;whiteSpace=wrap;" vertex="1" parent="1">
          <mxGeometry x="350.25" y="850" width="110" height="50" as="geometry" />
        </mxCell>
        <mxCell id="ySTbdtxIzFItPcby8uXL-8" value="Base de datos" style="html=1;whiteSpace=wrap;" vertex="1" parent="1">
          <mxGeometry x="559" y="850" width="110" height="50" as="geometry" />
        </mxCell>
        <mxCell id="ySTbdtxIzFItPcby8uXL-13" value="" style="endArrow=none;dashed=1;html=1;rounded=0;" edge="1" parent="1" source="zP6GRgx2e1SfnY5_b2-m-14" target="ySTbdtxIzFItPcby8uXL-2">
          <mxGeometry width="50" height="50" relative="1" as="geometry">
            <mxPoint x="210" y="492" as="sourcePoint" />
            <mxPoint x="209" y="377" as="targetPoint" />
          </mxGeometry>
        </mxCell>
        <mxCell id="ySTbdtxIzFItPcby8uXL-14" value="" style="endArrow=none;dashed=1;html=1;rounded=0;entryX=0.5;entryY=1;entryDx=0;entryDy=0;" edge="1" parent="1" target="ySTbdtxIzFItPcby8uXL-4">
          <mxGeometry width="50" height="50" relative="1" as="geometry">
            <mxPoint x="614" y="497" as="sourcePoint" />
            <mxPoint x="429" y="397" as="targetPoint" />
          </mxGeometry>
        </mxCell>
        <mxCell id="ySTbdtxIzFItPcby8uXL-19" value="" style="endArrow=classic;html=1;rounded=0;entryX=0;entryY=0;entryDx=0;entryDy=5;entryPerimeter=0;" edge="1" parent="1" target="ySTbdtxIzFItPcby8uXL-16">
          <mxGeometry width="50" height="50" relative="1" as="geometry">
            <mxPoint x="219" y="422" as="sourcePoint" />
            <mxPoint x="319" y="397" as="targetPoint" />
          </mxGeometry>
        </mxCell>
        <mxCell id="ySTbdtxIzFItPcby8uXL-20" value="1. Ingresar apartado &quot;Administrar cuentas&quot;" style="text;html=1;align=center;verticalAlign=middle;whiteSpace=wrap;rounded=0;" vertex="1" parent="1">
          <mxGeometry x="229" y="397" width="170" height="20" as="geometry" />
        </mxCell>
        <mxCell id="Q7iyhaRhj0uT2r-uqLAW-6" value="" style="endArrow=none;dashed=1;html=1;rounded=0;entryX=0.5;entryY=1;entryDx=0;entryDy=0;" edge="1" parent="1" source="zP6GRgx2e1SfnY5_b2-m-7">
          <mxGeometry width="50" height="50" relative="1" as="geometry">
            <mxPoint x="614.63" y="532" as="sourcePoint" />
            <mxPoint x="614.63" y="442" as="targetPoint" />
          </mxGeometry>
        </mxCell>
        <mxCell id="Q7iyhaRhj0uT2r-uqLAW-28" value="2. Solicita lista cuentas" style="text;html=1;align=center;verticalAlign=middle;whiteSpace=wrap;rounded=0;" vertex="1" parent="1">
          <mxGeometry x="445.38" y="452" width="136" height="20" as="geometry" />
        </mxCell>
        <mxCell id="Q7iyhaRhj0uT2r-uqLAW-29" value="" style="endArrow=classic;html=1;rounded=0;fontSize=12;startSize=8;endSize=8;curved=1;entryX=0;entryY=0;entryDx=0;entryDy=5;entryPerimeter=0;" edge="1" parent="1">
          <mxGeometry width="50" height="50" relative="1" as="geometry">
            <mxPoint x="418.38" y="472" as="sourcePoint" />
            <mxPoint x="608.38" y="472" as="targetPoint" />
          </mxGeometry>
        </mxCell>
        <mxCell id="Q7iyhaRhj0uT2r-uqLAW-33" value="3. Devolver lista de cuentas" style="text;html=1;align=center;verticalAlign=middle;whiteSpace=wrap;rounded=0;" vertex="1" parent="1">
          <mxGeometry x="453.38" y="510" width="120" height="20" as="geometry" />
        </mxCell>
        <mxCell id="Q7iyhaRhj0uT2r-uqLAW-40" value="" style="endArrow=classic;html=1;rounded=0;fontSize=12;startSize=8;endSize=8;curved=0;" edge="1" parent="1" target="Q7iyhaRhj0uT2r-uqLAW-39">
          <mxGeometry width="50" height="50" relative="1" as="geometry">
            <mxPoint x="609.63" y="537" as="sourcePoint" />
            <mxPoint x="413.38" y="677" as="targetPoint" />
            <Array as="points" />
          </mxGeometry>
        </mxCell>
        <mxCell id="XqNnvMDF5zRyPKJvlA_b-2" value="" style="endArrow=none;dashed=1;html=1;rounded=0;exitX=0.5;exitY=0;exitDx=0;exitDy=0;" edge="1" parent="1" source="ySTbdtxIzFItPcby8uXL-16" target="ySTbdtxIzFItPcby8uXL-3">
          <mxGeometry width="50" height="50" relative="1" as="geometry">
            <mxPoint x="409" y="872" as="sourcePoint" />
            <mxPoint x="409" y="352" as="targetPoint" />
          </mxGeometry>
        </mxCell>
        <mxCell id="XqNnvMDF5zRyPKJvlA_b-7" value="" style="endArrow=none;dashed=1;html=1;rounded=0;entryX=0.5;entryY=1;entryDx=0;entryDy=0;exitX=0.5;exitY=0;exitDx=0;exitDy=0;" edge="1" parent="1" source="ySTbdtxIzFItPcby8uXL-8">
          <mxGeometry width="50" height="50" relative="1" as="geometry">
            <mxPoint x="614" y="897" as="sourcePoint" />
            <mxPoint x="614" y="577" as="targetPoint" />
          </mxGeometry>
        </mxCell>
        <mxCell id="ySTbdtxIzFItPcby8uXL-16" value="" style="html=1;points=[[0,0,0,0,5],[0,1,0,0,-5],[1,0,0,0,5],[1,1,0,0,-5]];perimeter=orthogonalPerimeter;outlineConnect=0;targetShapes=umlLifeline;portConstraint=eastwest;newEdgeStyle={&quot;curved&quot;:0,&quot;rounded&quot;:0};" vertex="1" parent="1">
          <mxGeometry x="400.25" y="417" width="10" height="40" as="geometry" />
        </mxCell>
        <mxCell id="zP6GRgx2e1SfnY5_b2-m-8" value="" style="endArrow=none;dashed=1;html=1;rounded=0;entryX=0.5;entryY=1;entryDx=0;entryDy=0;" edge="1" parent="1" target="zP6GRgx2e1SfnY5_b2-m-7">
          <mxGeometry width="50" height="50" relative="1" as="geometry">
            <mxPoint x="614" y="577" as="sourcePoint" />
            <mxPoint x="614" y="487" as="targetPoint" />
          </mxGeometry>
        </mxCell>
        <mxCell id="zP6GRgx2e1SfnY5_b2-m-7" value="" style="html=1;points=[[0,0,0,0,5],[0,1,0,0,-5],[1,0,0,0,5],[1,1,0,0,-5]];perimeter=orthogonalPerimeter;outlineConnect=0;targetShapes=umlLifeline;portConstraint=eastwest;newEdgeStyle={&quot;curved&quot;:0,&quot;rounded&quot;:0};" vertex="1" parent="1">
          <mxGeometry x="609.63" y="462" width="10" height="40" as="geometry" />
        </mxCell>
        <mxCell id="Q7iyhaRhj0uT2r-uqLAW-39" value="" style="html=1;points=[[0,0,0,0,5],[0,1,0,0,-5],[1,0,0,0,5],[1,1,0,0,-5]];perimeter=orthogonalPerimeter;outlineConnect=0;targetShapes=umlLifeline;portConstraint=eastwest;newEdgeStyle={&quot;curved&quot;:0,&quot;rounded&quot;:0};" vertex="1" parent="1">
          <mxGeometry x="400.88" y="517" width="10" height="40" as="geometry" />
        </mxCell>
        <mxCell id="zP6GRgx2e1SfnY5_b2-m-11" value="" style="endArrow=classic;html=1;rounded=0;fontSize=12;startSize=8;endSize=8;curved=0;" edge="1" parent="1" target="zP6GRgx2e1SfnY5_b2-m-14">
          <mxGeometry width="50" height="50" relative="1" as="geometry">
            <mxPoint x="399" y="607" as="sourcePoint" />
            <mxPoint x="211.25" y="607" as="targetPoint" />
            <Array as="points" />
          </mxGeometry>
        </mxCell>
        <mxCell id="zP6GRgx2e1SfnY5_b2-m-13" value="4. Mostrar lista de cuentas" style="text;html=1;align=center;verticalAlign=middle;whiteSpace=wrap;rounded=0;" vertex="1" parent="1">
          <mxGeometry x="241.5" y="587" width="145" height="20" as="geometry" />
        </mxCell>
        <mxCell id="zP6GRgx2e1SfnY5_b2-m-14" value="" style="html=1;points=[[0,0,0,0,5],[0,1,0,0,-5],[1,0,0,0,5],[1,1,0,0,-5]];perimeter=orthogonalPerimeter;outlineConnect=0;targetShapes=umlLifeline;portConstraint=eastwest;newEdgeStyle={&quot;curved&quot;:0,&quot;rounded&quot;:0};" vertex="1" parent="1">
          <mxGeometry x="209" y="597" width="10" height="213" as="geometry" />
        </mxCell>
        <mxCell id="fawG-mlUvmoSq1yjeNEX-43" value="" style="endArrow=classic;html=1;rounded=0;" edge="1" parent="1">
          <mxGeometry width="50" height="50" relative="1" as="geometry">
            <mxPoint x="400" y="662" as="sourcePoint" />
            <mxPoint x="218.56" y="662" as="targetPoint" />
          </mxGeometry>
        </mxCell>
        <mxCell id="fawG-mlUvmoSq1yjeNEX-44" value="4.1. Crear cuenta" style="text;html=1;align=center;verticalAlign=middle;whiteSpace=wrap;rounded=0;" vertex="1" parent="1">
          <mxGeometry x="227.44" y="642" width="170" height="20" as="geometry" />
        </mxCell>
        <mxCell id="fawG-mlUvmoSq1yjeNEX-45" value="" style="endArrow=classic;html=1;rounded=0;" edge="1" parent="1">
          <mxGeometry width="50" height="50" relative="1" as="geometry">
            <mxPoint x="400" y="702" as="sourcePoint" />
            <mxPoint x="218.56" y="702" as="targetPoint" />
          </mxGeometry>
        </mxCell>
        <mxCell id="fawG-mlUvmoSq1yjeNEX-46" value="4.2. Eliminar cuenta" style="text;html=1;align=center;verticalAlign=middle;whiteSpace=wrap;rounded=0;" vertex="1" parent="1">
          <mxGeometry x="227.44" y="682" width="170" height="20" as="geometry" />
        </mxCell>
        <mxCell id="fawG-mlUvmoSq1yjeNEX-47" value="" style="endArrow=classic;html=1;rounded=0;" edge="1" parent="1">
          <mxGeometry width="50" height="50" relative="1" as="geometry">
            <mxPoint x="400" y="742" as="sourcePoint" />
            <mxPoint x="218.56" y="742" as="targetPoint" />
          </mxGeometry>
        </mxCell>
        <mxCell id="fawG-mlUvmoSq1yjeNEX-48" value="4.3. Editar perfil" style="text;html=1;align=center;verticalAlign=middle;whiteSpace=wrap;rounded=0;" vertex="1" parent="1">
          <mxGeometry x="229.94" y="722" width="170" height="20" as="geometry" />
        </mxCell>
        <mxCell id="o98vvXR9nArSOgrbBY4c-1" value="" style="endArrow=classic;html=1;rounded=0;" edge="1" parent="1">
          <mxGeometry width="50" height="50" relative="1" as="geometry">
            <mxPoint x="400.88" y="780" as="sourcePoint" />
            <mxPoint x="219.44" y="780" as="targetPoint" />
          </mxGeometry>
        </mxCell>
        <mxCell id="o98vvXR9nArSOgrbBY4c-2" value="4.4. Editar estado de cuenta" style="text;html=1;align=center;verticalAlign=middle;whiteSpace=wrap;rounded=0;" vertex="1" parent="1">
          <mxGeometry x="230.82" y="760" width="170" height="20" as="geometry" />
        </mxCell>
      </root>
    </mxGraphModel>
  </diagram>
</mxfile>
